<?xml version="1.0" encoding="utf-8"?>
<svg xmlns="http://www.w3.org/2000/svg" xmlns:xlink="http://www.w3.org/1999/xlink" style="margin: auto; background: none; display: block; shape-rendering: auto;" width="200px" height="200px" viewBox="0 0 100 100" preserveAspectRatio="xMidYMid">
<g transform="translate(50 50)">
<g transform="rotate(0.0207692)">
<animateTransform attributeName="transform" type="rotate" values="0;27.692307692307693" keyTimes="0;1" dur="0.2s" repeatCount="indefinite"></animateTransform><path d="M29.491524206117255 -5.5 L40.491524206117255 -5.5 L40.491524206117255 5.5 L29.491524206117255 5.5 A30 30 0 0 1 28.669425260244747 8.835386536379739 L28.669425260244747 8.835386536379739 L38.40944154243006 13.947341428861193 L33.2974866499486 23.6873577110465 L23.557470367763294 18.575402818565045 A30 30 0 0 1 21.279506491278863 21.146692495225366 L21.279506491278863 21.146692495225366 L27.528218705321578 30.199515020055586 L18.47539618049135 36.4482272340983 L12.226683966448638 27.39540470926808 A30 30 0 0 1 9.014709231014177 28.613546048685887 L9.014709231014177 28.613546048685887 L10.340612713822733 39.533343663764484 L-0.5791849012558594 40.85924714657304 L-1.9050883840644148 29.939449531494443 A30 30 0 0 1 -5.315249275052629 29.525381033003665 L-5.315249275052629 29.525381033003665 L-9.215903032520519 39.81055970254323 L-19.50108170206008 35.90990594507534 L-15.600427944592191 25.624727275535772 A30 30 0 0 1 -18.427548227902577 23.673307042074295 L-18.427548227902577 23.673307042074295 L-26.661166457784688 30.967656282723045 L-33.955515698433445 22.73403805284093 L-25.721897468551337 15.439688812192179 A30 30 0 0 1 -27.31831795777032 12.39796370208284 L-27.31831795777032 12.39796370208284 L-37.99867794945689 15.03043600924598 L-40.63115025662003 4.350076017559399 L-29.95079026493346 1.7176037103962598 A30 30 0 0 1 -29.95079026493346 -1.717603710396239 L-29.95079026493346 -1.717603710396239 L-40.63115025662003 -4.3500760175593705 L-37.998677949456905 -15.030436009245955 L-27.31831795777033 -12.397963702082823 A30 30 0 0 1 -25.721897468551347 -15.439688812192163 L-25.721897468551347 -15.439688812192163 L-33.95551569843346 -22.734038052840905 L-26.661166457784724 -30.96765628272302 L-18.42754822790261 -23.673307042074278 A30 30 0 0 1 -15.60042794459221 -25.624727275535765 L-15.60042794459221 -25.624727275535765 L-19.501081702060105 -35.90990594507532 L-9.215903032520533 -39.81055970254322 L-5.315249275052637 -29.52538103300366 A30 30 0 0 1 -1.9050883840644488 -29.939449531494443 L-1.9050883840644488 -29.939449531494443 L-0.5791849012559032 -40.85924714657304 L10.340612713822702 -39.53334366376449 L9.014709231014157 -28.613546048685894 A30 30 0 0 1 12.226683966448627 -27.395404709268085 L12.226683966448627 -27.395404709268085 L18.475396180491337 -36.44822723409831 L27.52821870532157 -30.199515020055593 L21.27950649127886 -21.14669249522537 A30 30 0 0 1 23.557470367763276 -18.57540281856507 L23.557470367763276 -18.57540281856507 L33.29748664994858 -23.68735771104653 L38.409441542430045 -13.947341428861215 L28.669425260244743 -8.835386536379755 A30 30 0 0 1 29.491524206117255 -5.500000000000013 M0 -9A9 9 0 1 0 0 9 A9 9 0 1 0 0 -9" fill="#2f70af"></path></g></g>
<!-- [ldio] generated by https://loading.io/ --></svg>